<svg width="336" height="40" viewBox="0 0 336 40" fill="none" xmlns="http://www.w3.org/2000/svg">
<path d="M5.39817 38.4413C5.25109 38.4413 5.11871 38.4265 5.00104 38.3971C4.88338 38.3971 4.78042 38.3824 4.69217 38.353H2.70653L0.765013 37.8676L0.588512 37.5587C0.559095 37.5587 0.544386 37.397 0.544386 37.0734C0.544386 36.8674 0.544386 36.6762 0.544386 36.4997C0.544386 36.3232 0.529678 36.1762 0.500261 36.0585L0.456136 34.0287C0.426719 33.7934 0.41201 33.5286 0.41201 33.2345C0.441427 32.9109 0.441427 32.5285 0.41201 32.0872L0.32376 28.7337C0.32376 28.3513 0.32376 27.91 0.32376 27.4099C0.353177 26.9098 0.382594 26.3362 0.41201 25.689L0.456136 24.2329C0.485553 23.7622 0.500261 23.1445 0.500261 22.3796C0.529678 21.6148 0.544386 20.7029 0.544386 19.6439V18.7614C0.485553 18.6437 0.456136 18.4819 0.456136 18.276L0.41201 17.9671C0.41201 17.2317 0.456136 16.4668 0.544386 15.6726C0.573803 15.1725 0.588512 14.7018 0.588512 14.2606C0.617929 13.8193 0.632637 13.3928 0.632637 12.9809L0.588512 11.7454C0.559095 11.5983 0.544386 11.4366 0.544386 11.2601C0.544386 11.0541 0.544386 10.8482 0.544386 10.6423C0.544386 10.5835 0.529678 10.5393 0.500261 10.5099C0.441427 10.4511 0.41201 10.3923 0.41201 10.3334C0.41201 10.0393 0.529678 9.78921 0.765013 9.58329C1.00035 9.37737 1.29452 9.23029 1.64752 9.14204C1.88285 9.0832 2.1329 9.03908 2.39765 9.00966C2.69182 8.95083 3.03011 8.92141 3.41253 8.92141H12.4582C12.4876 8.92141 12.5318 8.95083 12.5906 9.00966L12.7671 9.14204C13.0319 9.40679 13.326 9.80392 13.6496 10.3334C13.7379 10.5099 13.8555 10.7158 14.0026 10.9512C14.1497 11.1571 14.4144 11.4807 14.7969 11.9219C14.9145 12.1573 15.0028 12.4809 15.0616 12.8927C15.1499 13.2751 15.3411 13.6722 15.6352 14.0841L16.6501 15.452C16.7678 15.6579 16.8855 15.9226 17.0031 16.2462C17.1208 16.5404 17.2679 16.8934 17.4444 17.3052C17.5032 17.4229 17.5473 17.5406 17.5768 17.6582C17.6356 17.7759 17.6944 17.8936 17.7533 18.0112L18.018 18.7172C18.0474 18.8937 18.121 19.0408 18.2386 19.1585C18.2681 19.2173 18.2828 19.2614 18.2828 19.2909C18.3122 19.3203 18.3269 19.3497 18.3269 19.3791C18.4446 19.6144 18.6799 19.938 19.0329 20.3499C19.4153 20.7323 19.6654 20.9235 19.783 20.9235C19.9301 20.9235 20.0478 20.7323 20.136 20.3499C20.2537 19.938 20.3567 19.6144 20.4449 19.3791C20.4743 19.3497 20.5037 19.2762 20.5332 19.1585C20.5626 19.0997 20.592 19.0408 20.6214 18.982C20.6508 18.8937 20.695 18.7908 20.7538 18.6731L21.4157 17.217L23.1807 13.5104L23.9308 11.9219C23.9896 11.8043 24.0338 11.7013 24.0632 11.6131C24.0926 11.4954 24.122 11.3924 24.1514 11.3042C24.2103 11.1571 24.2544 11.0688 24.2838 11.0394C24.3426 10.8923 24.4309 10.7158 24.5486 10.5099C24.6956 10.2746 24.8722 9.99513 25.0781 9.67154C25.2252 9.43621 25.3575 9.2597 25.4752 9.14204C25.534 9.11262 25.5929 9.06849 25.6517 9.00966C25.7105 8.95083 25.7547 8.92141 25.7841 8.92141H39.1982C39.257 8.92141 39.3305 9.14204 39.4188 9.58329L39.5512 13.8634C39.5806 14.4812 39.5953 15.2755 39.5953 16.2462C39.6247 17.1876 39.6394 18.3201 39.6394 19.6439V22.159C39.6394 22.8062 39.61 23.5416 39.5512 24.3653C39.5218 25.1595 39.4776 25.8802 39.4188 26.5274C39.3894 27.1746 39.36 27.6158 39.3305 27.8512L39.2423 28.7337V30.2339C39.2717 30.4399 39.2864 30.7046 39.2864 31.0282C39.2864 31.3224 39.2864 31.6754 39.2864 32.0872C39.2864 32.9403 39.2864 33.6904 39.2864 34.3376C39.3158 34.9848 39.36 35.4701 39.4188 35.7937V37.5587L39.2864 37.8676L37.3449 38.353H35.3593C35.2416 38.3824 35.1239 38.3971 35.0063 38.3971C34.8886 38.4265 34.7562 38.4413 34.6091 38.4413C34.3444 38.4413 34.0355 38.4265 33.6825 38.3971C33.3295 38.3971 32.9177 38.3824 32.447 38.353L31.3439 38.3089C31.1379 38.2795 30.9026 38.25 30.6379 38.2206C30.3731 38.1912 30.0495 38.1765 29.6671 38.1765L27.9903 38.0441C27.9315 38.0441 27.8874 38.0588 27.858 38.0883H27.505C27.3873 38.0883 27.299 37.9265 27.2402 37.6029C27.0637 37.0734 26.9755 36.0879 26.9755 34.6465C26.9755 34.1758 26.9755 33.764 26.9755 33.411C26.9755 33.058 26.9607 32.7491 26.9313 32.4843L26.8872 30.1016C26.8578 29.8368 26.8431 29.5132 26.8431 29.1308C26.8431 28.7484 26.8431 28.3218 26.8431 27.8512C26.8431 27.6158 26.7401 27.4982 26.5342 27.4982C26.4165 27.4982 26.2989 27.6453 26.1812 27.9394L25.6958 29.0867L25.2987 30.1898C25.2399 30.3663 25.181 30.5428 25.1222 30.7193C25.0634 30.8958 24.9898 31.0576 24.9016 31.2047L24.6809 31.7342C24.4456 32.3225 24.1073 32.9991 23.6661 33.764C23.2542 34.4994 22.7247 35.1024 22.0775 35.5731C21.754 35.779 21.4451 35.882 21.1509 35.882H20.489C20.3419 35.882 20.1949 35.882 20.0478 35.882C19.9007 35.8526 19.7683 35.8232 19.6507 35.7937H17.7974C17.2091 34.8524 16.4883 33.8816 15.6352 32.8815C14.8116 31.8519 14.1497 30.7782 13.6496 29.6603L12.5465 28.0718C12.4288 27.8953 12.3406 27.7629 12.2817 27.6747C12.2523 27.557 12.2229 27.4982 12.1935 27.4982C11.9876 27.4982 11.8846 27.6158 11.8846 27.8512V29.8809C11.8846 31.9107 11.8552 33.5581 11.7963 34.823C11.7375 36.0585 11.6346 36.9704 11.4875 37.5587C11.4581 37.9117 11.3845 38.0883 11.2668 38.0883H10.958L10.7373 38.0441C10.2372 38.0735 9.78129 38.103 9.36945 38.1324C8.98703 38.1618 8.64874 38.1912 8.35457 38.2206C8.00157 38.25 7.60444 38.2942 7.16319 38.353C6.75135 38.4118 6.16301 38.4413 5.39817 38.4413ZM49.5311 39.2355C46.7659 39.3532 44.692 38.7795 43.3094 37.5146C41.9268 36.2203 41.1767 34.1905 41.059 31.4253C41.0296 30.2487 41.1326 29.3073 41.3679 28.6013C41.6326 27.8953 42.1769 27.0716 43.0005 26.1303C43.883 25.0713 44.8832 24.3211 46.0011 23.8799C47.1189 23.4092 48.6192 23.1592 50.5018 23.1298C51.2373 23.1003 51.8697 23.0856 52.3992 23.0856C52.9581 23.0562 53.3847 23.0562 53.6789 23.0856C54.532 23.1151 55.1938 23.1151 55.6645 23.0856C55.5763 22.1737 55.2821 21.5265 54.782 21.1441C54.4878 20.9088 54.076 20.747 53.5465 20.6587C53.017 20.5705 52.2521 20.5117 51.252 20.4822H47.7219C47.4278 20.4822 47.266 20.497 47.2366 20.5264C47.2366 20.5264 47.1042 20.5264 46.8394 20.5264H46.4864L43.883 20.8352C43.4712 20.6882 43.2653 20.1145 43.2653 19.1144C43.2653 18.9379 43.2653 18.7614 43.2653 18.5849C43.2653 18.3789 43.2653 18.0406 43.2653 17.57C43.2653 17.0699 43.2359 16.2903 43.177 15.2313C43.2359 15.0254 43.2506 14.7607 43.2212 14.4371L43.2653 13.7752C43.383 13.7752 43.4712 13.7458 43.53 13.6869L43.7507 13.4222C43.7801 13.3634 43.8242 13.3339 43.883 13.3339C44.0007 13.3339 44.1625 13.3192 44.3684 13.2898C44.6038 13.231 44.8685 13.1721 45.1627 13.1133L46.1334 12.9368C46.3688 12.878 46.5453 12.8486 46.6629 12.8486C47.4866 12.6721 48.0308 12.5544 48.2956 12.4956C48.5897 12.4367 48.9575 12.3926 49.3987 12.3632C51.0755 12.2749 52.7228 12.2602 54.3407 12.3191C55.9587 12.3485 57.4001 12.4367 58.665 12.5838C59.9594 12.7309 60.9007 12.9368 61.489 13.2016C63.3129 13.937 64.6514 15.0107 65.5045 16.4227C66.3575 17.8053 66.8135 19.7174 66.8723 22.159L67.0488 28.6013C67.0783 29.425 67.1077 30.1604 67.1371 30.8076C67.1665 31.4253 67.1812 31.8519 67.1812 32.0872L67.2253 33.058C67.1077 33.6463 67.0194 34.1611 66.9606 34.6023C66.9312 35.0142 66.9312 35.4701 66.9606 35.9702C67.0194 36.8527 66.9753 37.4705 66.8282 37.8235C66.7105 38.1471 66.4605 38.3236 66.0781 38.353L58.9298 38.5736C58.6944 38.5148 58.1355 38.5001 57.253 38.5295C56.9294 38.5589 56.65 38.5295 56.4146 38.4413C56.1793 38.3824 55.944 38.3089 55.7086 38.2206C55.2968 38.0441 55.0909 37.6029 55.0909 36.8969V36.3674C55.0909 36.3085 55.1056 36.2644 55.135 36.235V36.1026C55.0762 36.0438 55.032 36.0144 55.0026 36.0144C54.4143 36.9263 53.6053 37.6764 52.5757 38.2648C51.5756 38.8531 50.5607 39.1767 49.5311 39.2355ZM52.8846 32.1755C54.2084 32.1755 55.0615 31.4695 55.4439 30.0574L55.488 29.2191C55.5174 28.6307 55.3409 28.0865 54.9585 27.5864C54.5761 27.0569 54.1642 26.8069 53.723 26.8363C53.1641 26.8657 52.6787 27.1158 52.2669 27.5864C51.8844 28.0571 51.7226 28.5866 51.7815 29.1749L51.958 30.8517C52.1933 31.7342 52.5022 32.1755 52.8846 32.1755ZM83.1649 38.9266C82.0765 38.9855 81.1352 39.0296 80.3409 39.059C79.5761 39.1178 78.8406 39.0884 78.1346 38.9708C77.458 38.8825 76.7226 38.6766 75.9284 38.353C74.0751 37.5587 72.7219 36.4703 71.8688 35.0877C71.0452 33.7051 70.6039 31.8077 70.5451 29.3956H70.5892C70.6186 28.366 70.6333 27.307 70.6333 26.2185C70.6627 25.1007 70.6922 24.0858 70.7216 23.1739C70.751 22.2325 70.7657 21.5707 70.7657 21.1883H69.2654C68.8242 21.1883 68.53 20.9382 68.3829 20.4381C68.2653 19.9086 68.2064 19.232 68.2064 18.4084C68.2359 17.5847 68.2506 16.7169 68.2506 15.805V15.2313C68.3094 14.996 68.3388 14.8048 68.3388 14.6577C68.3388 14.5106 68.3388 14.3782 68.3388 14.2606V13.3781L68.3829 13.0251L68.5594 12.8486L68.9124 12.8927H70.1038C70.5451 12.8927 70.751 12.8927 70.7216 12.8927C70.6922 12.8927 70.5745 12.8927 70.3686 12.8927C70.1921 12.8633 70.0597 12.8486 69.9715 12.8486H70.7216L70.854 7.55352C70.9128 7.40644 70.9128 7.22994 70.854 7.02402C70.7951 6.8181 70.8098 6.6416 70.8981 6.49452C71.0157 6.31802 71.3246 6.22977 71.8247 6.22977H76.9433C77.1492 6.25918 77.3845 6.27389 77.6493 6.27389C77.914 6.27389 78.2229 6.27389 78.5759 6.27389H79.679C79.8261 6.21506 79.9291 6.18564 79.9879 6.18564C80.0762 6.18564 80.1644 6.18564 80.2527 6.18564C80.3703 6.15622 80.4733 6.14151 80.5615 6.14151C80.6498 6.1121 80.738 6.09739 80.8263 6.09739C81.7088 6.06797 82.15 6.71514 82.15 8.0389C82.15 8.89199 82.1206 9.73037 82.0618 10.554C82.003 11.3483 81.9441 12.0837 81.8853 12.7603H83.4297C83.5768 12.7603 83.7386 12.7603 83.9151 12.7603C84.0916 12.7603 84.2386 12.775 84.3563 12.8044L85.4153 12.8486L85.5477 12.9368C85.6065 12.9662 85.6359 13.0104 85.6359 13.0692V20.2616C85.6359 20.4675 85.5036 20.6735 85.2388 20.8794C85.0035 21.0559 84.7093 21.1735 84.3563 21.2324C83.8856 21.1147 83.6062 21.0412 83.5179 21.0117C83.4297 20.9529 83.312 20.9235 83.1649 20.9235H81.6647V22.3355C81.6647 24.0711 81.6647 25.2772 81.6647 25.9538C81.6647 26.6304 81.6794 26.9981 81.7088 27.0569V28.2924H81.7529C81.8706 29.5574 82.1353 30.3516 82.5472 30.6752C82.9884 30.9694 83.8562 31.0135 85.1506 30.8076C85.5624 30.9547 85.7683 31.5283 85.7683 32.5285C85.7683 32.6755 85.7683 32.852 85.7683 33.058C85.7683 33.2639 85.7683 33.6316 85.7683 34.1611C85.7977 34.6906 85.8272 35.5584 85.8566 36.7645C85.7977 36.941 85.783 37.2057 85.8124 37.5587L85.7683 38.2206C85.6507 38.2206 85.5624 38.25 85.5036 38.3089L85.2829 38.5736C85.2241 38.6325 85.18 38.6619 85.1506 38.6619C85.0329 38.6619 84.8711 38.6766 84.6652 38.706C84.4593 38.7648 84.1945 38.8237 83.8709 38.8825L83.1649 38.9266ZM115.556 30.7634C115.556 30.9105 115.526 31.1164 115.467 31.3812C115.409 31.646 115.379 31.9401 115.379 32.2637C115.379 32.7932 115.364 33.411 115.335 34.117C115.335 34.823 115.335 35.5437 115.335 36.2791C115.335 36.4556 115.335 36.6174 115.335 36.7645C115.335 36.9116 115.35 37.0145 115.379 37.0734C115.379 37.2205 115.379 37.3675 115.379 37.5146C115.409 37.6617 115.423 37.7941 115.423 37.9117C115.423 38.2648 115.026 38.4413 114.232 38.4413H112.07C111.334 38.4413 110.599 38.4265 109.863 38.3971C109.157 38.3971 108.437 38.3824 107.701 38.353C105.819 38.3236 104.627 37.9559 104.127 37.2499C104.098 37.1028 104.068 36.8674 104.039 36.5439C104.01 36.1909 103.995 35.779 103.995 35.3084C103.995 34.1905 103.995 33.2933 103.995 32.6167C104.024 31.9401 104.039 31.2341 104.039 30.4987V29.6603C104.039 29.3956 104.039 29.0573 104.039 28.6454C104.039 28.2042 104.054 27.66 104.083 27.0128C104.142 25.895 104.142 24.8507 104.083 23.8799C104.024 22.8797 104.039 21.9825 104.127 21.1883C104.274 19.9822 104.083 19.1291 103.554 18.629C103.024 18.1289 102.333 18.1289 101.48 18.629C100.862 18.9526 100.524 19.4085 100.465 19.9969C100.406 20.5558 100.391 21.0412 100.421 21.453V37.5587C100.391 37.6176 100.377 37.6911 100.377 37.7794C100.347 37.8676 100.288 37.9117 100.2 37.9117C100.171 37.9117 100.141 37.9117 100.112 37.9117C100.112 37.9117 100.082 37.9412 100.024 38C100.024 38 99.95 38.0294 99.8029 38.0883C99.2734 38.0883 98.7586 38.103 98.2585 38.1324C97.7585 38.1618 97.2731 38.2059 96.8024 38.2648H94.199C92.9929 38.2648 91.978 38.2206 91.1544 38.1324C90.3307 38.0735 89.5658 37.9265 88.8598 37.6911C88.6833 37.6911 88.5951 37.6029 88.5951 37.4264C88.448 37.191 88.3745 36.8969 88.3745 36.5439C88.3156 34.8083 88.2274 33.3521 88.1097 32.1755C88.0215 30.9988 87.9479 29.9398 87.8891 28.9984C87.8008 27.8806 87.742 26.6304 87.7126 25.2478C87.7126 23.8652 87.7126 22.3355 87.7126 20.6587V19.3791L87.7567 17.4376L87.845 15.1431L87.8891 9.09791C87.9185 8.95083 87.9332 8.80374 87.9332 8.65666C87.9332 8.48016 87.9332 8.25953 87.9332 7.99478V6.05326C87.9332 5.72968 87.9332 5.46493 87.9332 5.25901C87.9332 5.05309 87.9479 4.8913 87.9773 4.77363C87.9773 4.65596 88.0215 4.59713 88.1097 4.59713C88.3745 4.59713 88.6245 4.53829 88.8598 4.42063C88.9187 4.42063 88.9775 4.42063 89.0363 4.42063C89.0952 4.42063 89.1834 4.40592 89.3011 4.3765C89.3599 4.3765 89.4335 4.3765 89.5217 4.3765C89.61 4.3765 89.6835 4.39121 89.7423 4.42063H96.67C96.9642 4.42063 97.1995 4.42063 97.376 4.42063C97.5819 4.42063 97.7437 4.43533 97.8614 4.46475L99.2293 4.50888C99.8176 4.50888 100.171 4.64125 100.288 4.906C100.347 5.02367 100.377 5.22959 100.377 5.52376C100.406 5.81793 100.421 6.17093 100.421 6.58277V7.64178C100.421 8.0242 100.435 8.28895 100.465 8.43603V9.23029C100.465 9.2597 100.465 9.48033 100.465 9.89217C100.494 10.304 100.509 10.8188 100.509 11.4366C100.509 12.0249 100.509 12.6132 100.509 13.2016C100.509 13.7899 100.509 14.2753 100.509 14.6577C100.509 15.0401 100.509 15.2166 100.509 15.1872V14.9666C101.509 13.9664 102.7 13.3339 104.083 13.0692C105.495 12.775 106.878 12.6279 108.231 12.6279C110.555 12.6279 112.276 13.1869 113.394 14.3047C114.511 15.3931 115.173 16.7904 115.379 18.4966C115.467 19.1732 115.541 19.9527 115.6 20.8352C115.688 21.7178 115.732 22.968 115.732 24.5859C115.732 25.5567 115.717 26.5568 115.688 27.5864C115.659 28.5866 115.614 29.6456 115.556 30.7634ZM162.819 9.71567C162.937 9.71567 162.996 9.80392 162.996 9.98042C162.996 12.9221 162.981 15.599 162.952 18.0112C162.952 20.4234 162.937 22.6591 162.908 24.7183C162.878 26.7775 162.819 28.7631 162.731 30.6752C162.672 32.5873 162.584 34.5435 162.466 36.5439C162.466 37.044 162.363 37.4558 162.158 37.7794C161.981 38.0735 161.849 38.2648 161.76 38.353L161.584 38.5295L161.452 38.6178C161.422 38.5883 161.29 38.5442 161.054 38.4854C160.848 38.456 160.687 38.4413 160.569 38.4413L160.393 38.5295C160.334 38.5883 160.275 38.6178 160.216 38.6178C159.51 38.7354 158.627 38.8237 157.568 38.8825C156.539 38.9413 155.289 38.9708 153.818 38.9708H151.567C151.156 38.9708 150.758 38.956 150.376 38.9266C150.023 38.8972 149.685 38.8384 149.361 38.7501C149.244 38.6913 149.126 38.5148 149.008 38.2206C148.891 37.9559 148.758 37.4999 148.611 36.8527C148.552 36.588 148.479 36.3821 148.39 36.235C148.361 36.1762 148.405 36.1173 148.523 36.0585C148.64 35.9997 148.67 35.9702 148.611 35.9702L148.39 35.8379H148.346C147.552 36.7204 146.611 37.4117 145.522 37.9117C144.434 38.4118 143.301 38.7648 142.125 38.9708C140.948 39.2061 139.815 39.3238 138.727 39.3238C136.903 39.3238 135.388 39.0002 134.182 38.353C133.005 37.7058 132.093 36.8527 131.446 35.7937C130.829 34.7053 130.417 33.5286 130.211 32.2637C130.093 31.4989 129.99 30.5428 129.902 29.3956C129.814 28.2189 129.77 26.7333 129.77 24.9389C129.77 23.8505 129.784 22.7326 129.814 21.5854C129.872 20.4381 129.931 19.232 129.99 17.9671C129.99 17.82 130.02 17.5994 130.078 17.3052C130.167 16.9816 130.211 16.6433 130.211 16.2903C130.211 15.702 130.211 14.9225 130.211 13.9517C130.24 12.9809 130.255 12.0984 130.255 11.3042C130.255 11.0688 130.255 10.8629 130.255 10.6864C130.255 10.5099 130.24 10.407 130.211 10.3775C130.211 10.201 130.196 10.0245 130.167 9.84804C130.137 9.67154 130.123 9.52446 130.123 9.40679C130.123 9.17145 130.24 9.02437 130.476 8.96553C130.711 8.87728 131.079 8.83316 131.579 8.83316H134.138C135.02 8.83316 135.888 8.83316 136.741 8.83316C137.624 8.83316 138.506 8.86258 139.389 8.92141C141.683 9.06849 143.095 9.48033 143.625 10.1569C143.684 10.304 143.728 10.5835 143.757 10.9953C143.787 11.4071 143.801 11.8631 143.801 12.3632C143.801 13.6281 143.787 14.7312 143.757 15.6726C143.757 16.5845 143.757 17.4523 143.757 18.276V19.2467C143.757 19.5409 143.757 19.9233 143.757 20.394C143.757 20.8647 143.743 21.453 143.713 22.159C143.684 23.4239 143.684 24.6153 143.713 25.7332C143.772 26.851 143.743 27.8512 143.625 28.7337C143.448 30.0869 143.669 31.0576 144.287 31.646C144.934 32.2049 145.772 32.2049 146.802 31.646C147.037 31.5577 147.228 31.44 147.376 31.293C147.552 31.1164 147.684 30.9547 147.773 30.8076V13.9517C147.714 13.5987 147.655 13.2751 147.596 12.9809C147.567 12.6868 147.552 12.4367 147.552 12.2308C147.523 12.172 147.508 12.0837 147.508 11.9661C147.508 11.819 147.508 11.6719 147.508 11.5248V10.2452C147.508 9.83333 147.567 9.56858 147.684 9.45091C147.831 9.30383 148.037 9.23029 148.302 9.23029C148.508 9.23029 148.611 9.31854 148.611 9.49504V9.58329C148.935 9.4362 149.597 9.31854 150.597 9.23029C151.626 9.14204 152.7 9.09791 153.818 9.09791H156.862L162.202 9.23029C162.349 9.23029 162.422 9.27441 162.422 9.36266C162.452 9.36266 162.466 9.37737 162.466 9.40679V9.71567C162.437 9.71567 162.422 9.7745 162.422 9.89217L162.687 9.80392C162.746 9.74508 162.79 9.71567 162.819 9.71567ZM189.933 38.6178C189.198 38.6178 188.463 38.603 187.727 38.5736C187.021 38.5736 186.3 38.5589 185.565 38.5295C183.682 38.5001 182.491 38.1324 181.991 37.4264C181.961 37.2793 181.932 37.044 181.903 36.7204C181.873 36.3674 181.858 35.9555 181.858 35.4849C181.858 34.367 181.858 33.5139 181.858 32.9256C181.888 32.3372 181.903 31.6754 181.903 30.9399V30.1016C181.903 29.8368 181.903 29.4985 181.903 29.0867C181.903 28.6454 181.917 28.1012 181.947 27.454C182.006 26.3362 182.006 25.2919 181.947 24.3211C181.888 23.321 181.903 22.4238 181.991 21.6295C182.138 20.4234 181.947 19.5703 181.417 19.0702C180.888 18.5701 180.196 18.5701 179.343 19.0702C179.049 19.1879 178.829 19.3497 178.681 19.5556C178.534 19.7615 178.431 19.9822 178.373 20.2175V20.6146C178.373 20.5558 178.373 20.5117 178.373 20.4822C178.402 20.4528 178.417 20.4234 178.417 20.394V21.1H178.373V37.7352C178.343 37.7941 178.328 37.8823 178.328 38C178.299 38.0883 178.211 38.1324 178.064 38.1324C178.005 38.1324 177.961 38.1471 177.931 38.1765C177.902 38.2059 177.872 38.2206 177.843 38.2206C177.814 38.2206 177.77 38.2353 177.711 38.2648C177.211 38.2648 176.71 38.2795 176.21 38.3089C175.74 38.3383 175.284 38.3824 174.843 38.4413H171.886C170.709 38.4413 169.724 38.3971 168.93 38.3089C168.165 38.25 167.444 38.103 166.768 37.8676C166.65 37.8676 166.547 37.7941 166.459 37.647C166.37 37.4411 166.326 37.1469 166.326 36.7645C166.268 35.0289 166.194 33.5433 166.106 32.3078C166.017 31.0429 165.944 29.9545 165.885 29.0426C165.797 27.9247 165.738 26.5421 165.709 24.8948C165.679 23.218 165.664 21.5413 165.664 19.8645V18.629L165.709 16.6875L165.797 14.9225L165.885 13.7311C165.885 13.6428 165.885 13.5104 165.885 13.3339C165.885 13.1574 165.9 13.0251 165.929 12.9368C165.929 12.8486 165.973 12.8044 166.062 12.8044C166.297 12.8044 166.532 12.7309 166.768 12.5838C166.797 12.5838 166.841 12.5838 166.9 12.5838C166.988 12.5838 167.076 12.5691 167.165 12.5397C167.371 12.5397 167.518 12.5544 167.606 12.5838H174.754C174.99 12.5838 175.196 12.5838 175.372 12.5838C175.578 12.5838 175.74 12.5985 175.857 12.6279L177.093 12.6721C177.564 12.7015 177.887 12.9221 178.064 13.3339C178.27 13.7164 178.373 14.1576 178.373 14.6577L178.417 14.7901V15.3637C179.417 14.2459 180.608 13.481 181.991 13.0692C183.373 12.6279 184.741 12.4073 186.094 12.4073C188.418 12.4073 190.139 12.9956 191.257 14.1723C192.375 15.349 193.037 16.7904 193.243 18.4966C193.331 19.1732 193.405 20.0263 193.463 21.0559C193.552 22.0855 193.596 23.4092 193.596 25.0272C193.596 25.9979 193.581 26.9981 193.552 28.0277C193.522 29.0279 193.478 30.0869 193.419 31.2047C193.419 31.3518 193.39 31.5577 193.331 31.8225C193.272 32.0872 193.243 32.3814 193.243 32.705C193.243 33.2345 193.228 33.8081 193.199 34.4258C193.199 35.0436 193.199 35.7202 193.199 36.4556C193.199 36.6321 193.199 36.7939 193.199 36.941C193.199 37.0881 193.213 37.191 193.243 37.2499C193.243 37.397 193.243 37.544 193.243 37.6911C193.272 37.8382 193.287 37.9706 193.287 38.0883C193.287 38.4413 192.89 38.6178 192.096 38.6178H189.933ZM201.157 8.65666L200.892 8.52428C200.892 8.46545 200.863 8.43603 200.804 8.43603C200.716 8.43603 200.657 8.45074 200.628 8.48016C200.598 8.50957 200.539 8.52428 200.451 8.52428L200.054 8.61253L199.745 8.52428C199.657 8.52428 199.598 8.50957 199.569 8.48016C199.539 8.45074 199.48 8.43603 199.392 8.43603L198.377 8.30366L198.068 8.17128H197.848C197.848 8.23011 197.818 8.25953 197.759 8.25953C197.553 8.25953 197.421 8.24482 197.362 8.21541C197.333 8.18599 197.259 8.17128 197.142 8.17128C196.906 8.02419 196.745 7.78886 196.656 7.46527C196.627 7.40644 196.612 7.34761 196.612 7.28877C196.612 7.20052 196.597 7.14169 196.568 7.11227C196.539 7.08285 196.524 7.05344 196.524 7.02402C196.524 6.96519 196.509 6.92106 196.48 6.89164V2.69974C196.509 2.58207 196.524 2.40557 196.524 2.17024V1.02298C196.524 0.640558 196.494 0.375806 196.436 0.22872V0.14047C196.436 0.111054 196.568 0.081637 196.833 0.0522205C197.098 0.0228023 197.348 0.00809313 197.583 0.00809313C197.818 0.00809313 197.965 0.00809313 198.024 0.00809313C198.112 0.00809313 198.171 0.0228023 198.201 0.0522205H198.818L199.701 0.14047L200.539 0.405221C200.745 0.434639 201.128 0.478765 201.687 0.537598C202.245 0.596431 202.584 0.625848 202.701 0.625848C202.849 0.625848 203.128 0.669973 203.54 0.758225C203.981 0.846476 204.261 0.875892 204.378 0.846474C204.525 0.817058 204.672 0.875891 204.819 1.02298C204.967 1.14064 205.099 1.19948 205.217 1.19948C205.746 1.11123 206.29 1.18477 206.849 1.4201C207.173 1.53777 207.452 1.64073 207.688 1.72898C207.923 1.78782 208.055 1.9349 208.085 2.17024L208.129 3.53812C208.158 4.39121 208.217 5.09721 208.305 5.65614C208.423 6.18564 208.423 6.92106 208.305 7.8624L207.996 8.17128L204.246 8.52428C204.011 8.52428 203.687 8.53899 203.275 8.56841C202.893 8.56841 202.657 8.58312 202.569 8.61253C202.451 8.64195 202.334 8.65666 202.216 8.65666C202.098 8.65666 201.966 8.65666 201.819 8.65666H201.157ZM205.923 38.706L204.864 38.5736L202.834 38.353L202.216 38.3971H200.672C200.642 38.2795 200.554 38.2206 200.407 38.2206L199.789 38.2648C199.583 38.2942 199.377 38.3236 199.171 38.353C198.995 38.3824 198.863 38.3971 198.774 38.3971C198.715 38.3383 198.613 38.2942 198.465 38.2648H198.245C198.245 38.2353 198.215 38.2206 198.157 38.2206L198.024 38.2648L197.98 38.3089C197.568 38.3089 197.289 38.1912 197.142 37.9559C197.024 37.75 196.936 37.4705 196.877 37.1175C196.818 36.7351 196.789 36.1762 196.789 35.4407C196.818 35.2348 196.818 34.9995 196.789 34.7347C196.789 34.47 196.759 34.0434 196.7 33.4551L196.568 31.646V19.1585C196.568 18.6584 196.553 18.173 196.524 17.7024C196.524 17.2317 196.494 16.6581 196.436 15.9815C196.406 15.7167 196.362 15.4814 196.303 15.2755C196.274 15.246 196.259 15.1431 196.259 14.9666C196.318 13.7899 196.568 13.0104 197.009 12.6279C197.48 12.2161 198.362 12.0102 199.657 12.0102C199.657 12.0102 199.745 11.9808 199.922 11.9219C200.01 11.8925 200.113 11.8778 200.23 11.8778H200.275C200.304 11.8778 200.333 11.8925 200.363 11.9219C200.628 11.9219 200.789 11.9513 200.848 12.0102H201.025C201.142 12.0102 201.245 11.9661 201.334 11.8778L204.643 11.9219C204.761 11.9219 204.893 11.9219 205.04 11.9219C205.187 11.8925 205.364 11.8631 205.57 11.8337C205.746 11.8043 206.129 11.7896 206.717 11.7896C208.07 11.7896 208.747 12.0249 208.747 12.4956V19.2909C208.747 20.291 208.732 21.4089 208.702 22.6444C208.673 23.8799 208.644 25.0419 208.614 26.1303C208.585 27.2187 208.541 28.0718 208.482 28.6896L208.349 30.4987C208.291 31.4989 208.247 32.3667 208.217 33.1021C208.188 33.8375 208.158 34.4406 208.129 34.9112C208.099 34.9406 208.085 35.0142 208.085 35.1319C208.085 35.2201 208.085 35.4701 208.085 35.882C208.085 36.6762 207.982 37.3234 207.776 37.8235C207.57 38.2942 207.29 38.5295 206.937 38.5295L205.923 38.706ZM220.253 38.6178C220.077 38.6178 219.9 38.5883 219.724 38.5295C219.577 38.4707 219.4 38.4413 219.194 38.4413C219.047 38.4413 218.885 38.456 218.709 38.4854C218.532 38.5148 218.371 38.4707 218.224 38.353C218.194 38.3236 218.165 38.3089 218.135 38.3089C218.135 38.3383 218.135 38.353 218.135 38.353H217.915C217.679 38.2353 217.562 38.1177 217.562 38L214.914 29.5721C214.649 28.719 214.341 27.66 213.988 26.395C213.635 25.1301 213.223 23.7769 212.752 22.3355C212.281 20.8941 211.708 19.4821 211.031 18.0995C211.002 18.0701 210.987 17.9671 210.987 17.7906L210.855 17.2611C210.766 17.0258 210.722 16.7022 210.722 16.2903C210.722 16.0844 210.678 15.8491 210.59 15.5843C210.502 15.2902 210.487 14.996 210.546 14.7018C210.634 14.4077 210.913 14.1723 211.384 13.9958L212.223 13.6428L215.223 12.9368C215.252 12.9368 215.297 12.9368 215.355 12.9368C215.444 12.9074 215.503 12.9074 215.532 12.9368C215.591 12.9662 215.62 12.9368 215.62 12.8486C215.62 12.7603 215.635 12.7162 215.664 12.7162C215.753 12.7162 215.797 12.7162 215.797 12.7162L215.841 12.6721C215.929 12.6426 216.003 12.6279 216.061 12.6279C216.12 12.6279 216.164 12.6132 216.194 12.5838L216.414 12.4956L217.165 12.4514L219.459 12.0102C220.018 11.8337 220.445 11.8631 220.739 12.0984C221.033 12.3044 221.254 12.5838 221.401 12.9368C221.577 13.2898 221.709 13.584 221.798 13.8193L222.415 15.5402C222.621 16.0697 222.827 16.6875 223.033 17.3935C223.239 18.0701 223.416 18.6731 223.563 19.2026C223.71 19.7321 223.769 20.0557 223.739 20.1734C223.739 20.2616 223.754 20.3205 223.783 20.3499C223.783 20.5264 223.798 20.644 223.827 20.7029C223.975 20.7911 224.078 20.9529 224.136 21.1883C224.195 21.3942 224.254 21.556 224.313 21.6736C224.372 21.7325 224.416 21.8501 224.445 22.0266C224.475 22.1737 224.504 22.3208 224.534 22.4679L225.019 23.5269L225.725 25.8655L225.946 26.395L226.343 27.0569C226.343 27.0275 226.401 26.8951 226.519 26.6598C226.637 26.4245 226.754 26.1891 226.872 25.9538C226.99 25.689 227.049 25.5272 227.049 25.4684L227.49 23.7034L227.887 22.3796C227.946 22.2325 227.975 22.1002 227.975 21.9825C227.975 21.8354 227.99 21.703 228.019 21.5854L228.152 21.0117L228.24 20.4381C228.299 20.144 228.387 19.9086 228.505 19.7321C228.622 19.5262 228.74 19.1879 228.858 18.7172C229.476 16.511 229.931 14.8489 230.226 13.7311C230.52 12.6132 230.946 12.1279 231.505 12.2749L233.094 12.3632L235.918 12.6279C236.036 12.6279 236.168 12.6868 236.315 12.8044C236.491 12.8927 236.624 12.9221 236.712 12.8927L237.859 13.0251C238.301 13.0545 238.668 13.2751 238.962 13.6869C239.257 14.0988 239.315 14.4959 239.139 14.8783C239.139 15.1431 239.08 15.6432 238.962 16.3786C238.933 16.4963 238.889 16.5992 238.83 16.6875C238.771 16.7757 238.742 16.8493 238.742 16.9081C238.712 16.9669 238.698 17.0699 238.698 17.217C238.492 17.8641 238.212 18.7614 237.859 19.9086C237.536 21.0265 237.183 22.2473 236.8 23.571C236.418 24.8654 236.05 26.1303 235.697 27.3658C235.374 28.5719 235.094 29.6015 234.859 30.4546L232.917 38C232.917 38.0883 232.8 38.2059 232.564 38.353H232.3C232.182 38.353 232.079 38.353 231.991 38.353C231.932 38.353 231.873 38.3824 231.814 38.4413C231.697 38.5589 231.535 38.6178 231.329 38.6178C231.182 38.6178 231.02 38.6325 230.843 38.6619C230.667 38.7207 230.505 38.706 230.358 38.6178C230.152 38.5883 229.961 38.5589 229.784 38.5295C229.637 38.5295 229.505 38.5295 229.387 38.5295C228.622 38.5883 227.652 38.6178 226.475 38.6178C225.328 38.6472 224.18 38.6472 223.033 38.6178C221.915 38.6178 220.989 38.6178 220.253 38.6178ZM252.326 11.7896C252.444 11.7896 252.576 11.8043 252.723 11.8337C252.87 11.8337 253.047 11.8484 253.253 11.8778C253.312 11.8778 253.415 11.8925 253.562 11.9219C253.709 11.9219 253.871 11.9219 254.047 11.9219C254.665 11.9219 255.797 12.172 257.445 12.6721H257.71C257.915 12.6721 258.077 12.7162 258.195 12.8044C258.224 12.8339 258.254 12.878 258.283 12.9368C258.313 12.9662 258.342 12.9809 258.371 12.9809C258.518 12.9809 258.607 13.0251 258.636 13.1133L259.475 13.8193C260.916 15.0548 262.004 16.7463 262.74 18.8937C263.416 20.8647 263.755 22.9238 263.755 25.0713L263.402 25.9097L251.576 26.1303L250.296 26.1744L250.341 27.3217L250.517 28.3807L250.914 29.4397L252.061 30.4546C252.385 30.7193 252.841 30.9399 253.429 31.1164C254.047 31.293 254.68 31.3812 255.327 31.3812H255.547C256.047 31.3812 256.665 31.2782 257.401 31.0723C258.136 30.837 258.916 30.6164 259.739 30.4104L262.21 29.7927L262.74 30.4546L263.534 36.0585L263.049 36.8527C261.696 37.4999 260.475 38 259.386 38.353C258.298 38.706 257.283 38.9413 256.342 39.059C255.518 39.1473 254.797 39.2208 254.18 39.2796C253.591 39.3679 253.032 39.412 252.503 39.412C251.62 39.412 250.826 39.3238 250.12 39.1473C249.414 38.9708 248.679 38.8384 247.914 38.7501C246.825 38.6325 245.796 38.2648 244.825 37.647C242.766 36.0585 241.251 34.3082 240.28 32.3961C239.339 30.4546 238.839 28.1453 238.78 25.4684C238.721 22.4385 239.309 19.7909 240.545 17.5258L240.765 16.7757C240.883 16.7169 240.942 16.6728 240.942 16.6433C240.971 16.5845 241.001 16.5551 241.03 16.5551L241.118 16.3786L241.383 16.2021C242.413 14.2606 244.075 12.9368 246.369 12.2308C247.752 11.9366 249.738 11.7896 252.326 11.7896ZM252.326 17.1287C252.238 17.1287 252.135 17.1434 252.017 17.1728C251.9 17.1728 251.811 17.2464 251.753 17.3935C251.694 17.57 251.561 17.6876 251.355 17.7465C251.15 17.8053 251.002 18.173 250.914 18.8496C250.826 19.585 250.738 20.1587 250.649 20.5705C250.591 20.9823 250.708 21.1883 251.002 21.1883L253.915 21.1441L253.782 19.8204L253.65 18.982L253.474 18.0554C253.474 17.9377 253.444 17.8494 253.385 17.7906C253.356 17.7318 253.326 17.6435 253.297 17.5258L252.856 17.217C252.679 17.1581 252.503 17.1287 252.326 17.1287ZM272.906 38.6619C271.435 38.6619 270.288 38.6178 269.464 38.5295C268.641 38.4413 267.92 38.2942 267.302 38.0883C267.126 38.0883 267.008 38.0147 266.949 37.8676C266.832 37.6029 266.773 37.3087 266.773 36.9851L266.287 29.5279C266.229 28.7043 266.184 27.9394 266.155 27.2334C266.126 26.5274 266.096 25.7626 266.067 24.9389C266.067 24.0858 266.067 23.0856 266.067 21.9384V20.6587L266.111 18.8055L266.199 16.5992L266.287 14.9666C266.287 14.4665 266.287 14.1576 266.287 14.0399C266.287 13.8929 266.302 13.7752 266.332 13.6869C266.332 13.5987 266.39 13.5546 266.508 13.5546C266.773 13.5546 267.038 13.4957 267.302 13.3781C267.361 13.3781 267.42 13.3781 267.479 13.3781C267.538 13.3781 267.626 13.3634 267.744 13.3339C267.802 13.3339 267.876 13.3339 267.964 13.3339C268.082 13.3339 268.17 13.3487 268.229 13.3781H274.451C274.892 13.3781 275.186 13.3781 275.333 13.3781C275.48 13.3781 275.613 13.3928 275.73 13.4222L277.098 13.4663C277.451 13.4957 277.701 13.5252 277.848 13.5546C278.025 13.584 278.157 13.6869 278.245 13.8634L278.598 15.099V18.0112C279.304 16.8346 280.584 15.599 282.437 14.3047C283.202 13.7458 283.952 13.4075 284.688 13.2898C285.423 13.1722 286.041 13.0545 286.541 12.9368C286.894 12.8486 287.188 12.9074 287.423 13.1133C287.659 13.2898 287.776 13.5693 287.776 13.9517C287.776 17.6288 287.688 20.2028 287.512 21.6736C287.335 23.1151 287.012 23.8211 286.541 23.7916C286.011 23.7622 285.438 23.6887 284.82 23.571C284.232 23.4239 283.54 23.3504 282.746 23.3504C281.54 23.3504 280.525 23.674 279.702 24.3211C278.907 24.9389 278.51 25.7185 278.51 26.6598V37.6911C278.51 37.8382 278.481 37.9265 278.422 37.9559C278.392 37.9853 278.378 38.0588 278.378 38.1765C278.348 38.2942 278.275 38.353 278.157 38.353C278.187 38.353 278.142 38.3824 278.025 38.4413L277.804 38.5295C276.657 38.5295 275.568 38.5736 274.539 38.6619H272.906ZM293.859 38.7501L293.241 38.6619L292.402 38.3971C291.991 38.3383 291.593 38.25 291.211 38.1324C290.829 38.0147 290.476 37.9412 290.152 37.9117C290.005 37.8529 289.858 37.7941 289.711 37.7352C289.564 37.6764 289.431 37.647 289.314 37.647C289.255 37.5882 289.167 37.5293 289.049 37.4705C288.961 37.3822 288.902 37.3234 288.872 37.294L287.99 31.999V31.646C287.99 31.293 288.078 31.1164 288.255 31.1164C289.167 31.4106 289.931 31.6607 290.549 31.8666C291.167 32.0431 291.888 32.1313 292.711 32.1313C293.182 32.1313 293.491 32.1313 293.638 32.1313C293.785 32.1313 293.888 32.146 293.947 32.1755C294.447 32.1755 294.888 32.1166 295.271 31.999C295.653 31.8813 295.947 31.7783 296.153 31.6901C296.388 31.6018 296.506 31.4106 296.506 31.1164C296.506 30.6458 296.403 30.2781 296.197 30.0133C295.991 29.7486 295.579 29.4544 294.962 29.1308L293.726 28.6013C293.55 28.6013 293.491 28.5425 293.55 28.4248C293.638 28.2777 293.52 28.1453 293.197 28.0277C293.197 27.9983 293.182 27.9688 293.153 27.9394L293.108 27.8953C293.02 27.8659 292.917 27.8218 292.799 27.7629C292.711 27.6747 292.579 27.6011 292.402 27.5423L292.138 27.454C292.226 27.454 292.27 27.4393 292.27 27.4099C292.27 27.3217 292.226 27.2775 292.138 27.2775C292.108 27.2775 292.049 27.2334 291.961 27.1452C291.902 27.0569 291.799 26.9981 291.652 26.9687C291.505 26.8804 291.387 26.7922 291.299 26.7039C291.211 26.5862 291.123 26.5127 291.034 26.4833C290.829 26.3068 290.726 26.145 290.726 25.9979V25.689C289.99 25.689 289.387 24.9389 288.916 23.4386C288.74 22.7326 288.578 22.1296 288.431 21.6295C288.313 21.1 288.255 20.644 288.255 20.2616C288.255 18.0259 289.181 16.2168 291.034 14.8342C292.888 13.4222 295.506 12.5691 298.889 12.2749C300.095 12.1867 301.36 12.1131 302.684 12.0543C304.007 11.9955 305.258 11.9661 306.434 11.9661C306.64 12.0249 306.817 12.0837 306.964 12.1426C307.111 12.2014 307.243 12.2308 307.361 12.2308C307.861 12.2602 308.14 12.3926 308.199 12.6279C308.258 12.8633 308.346 13.1869 308.464 13.5987C308.523 13.834 308.567 14.29 308.596 14.9666C308.626 15.6432 308.67 16.5404 308.729 17.6582C308.817 17.6876 308.861 17.7465 308.861 17.8347C308.861 18.0112 308.552 18.2171 307.934 18.4525C307.729 18.4819 307.508 18.526 307.273 18.5849C307.037 18.6143 306.817 18.629 306.611 18.629L305.728 18.7614C305.081 18.8496 304.463 18.8937 303.875 18.8937C303.287 18.8937 302.742 19.1438 302.242 19.6439C301.919 19.9969 301.757 20.3499 301.757 20.7029C301.757 21.0265 301.933 21.2618 302.286 21.4089C302.463 21.5265 302.728 21.6736 303.081 21.8501C303.434 21.9972 303.89 22.2031 304.449 22.4679C306.89 23.5857 308.611 25.3802 309.611 27.8512C309.729 28.1453 309.817 28.4689 309.876 28.8219C309.935 29.1749 309.964 29.5574 309.964 29.9692C309.964 30.7634 309.861 31.4695 309.655 32.0872C309.185 33.6169 307.876 35.1319 305.728 36.6321C303.875 37.9265 301.933 38.603 299.904 38.6619L293.859 38.7501ZM324.418 11.7896C324.535 11.7896 324.668 11.8043 324.815 11.8337C324.962 11.8337 325.138 11.8484 325.344 11.8778C325.403 11.8778 325.506 11.8925 325.653 11.9219C325.8 11.9219 325.962 11.9219 326.139 11.9219C326.756 11.9219 327.889 12.172 329.536 12.6721H329.801C330.007 12.6721 330.169 12.7162 330.286 12.8044C330.316 12.8339 330.345 12.878 330.375 12.9368C330.404 12.9662 330.433 12.9809 330.463 12.9809C330.61 12.9809 330.698 13.0251 330.728 13.1133L331.566 13.8193C333.007 15.0548 334.096 16.7463 334.831 18.8937C335.508 20.8647 335.846 22.9238 335.846 25.0713L335.493 25.9097L323.668 26.1303L322.388 26.1744L322.432 27.3217L322.609 28.3807L323.006 29.4397L324.153 30.4546C324.477 30.7193 324.933 30.9399 325.521 31.1164C326.139 31.293 326.771 31.3812 327.418 31.3812H327.639C328.139 31.3812 328.757 31.2782 329.492 31.0723C330.228 30.837 331.007 30.6164 331.831 30.4104L334.302 29.7927L334.831 30.4546L335.626 36.0585L335.14 36.8527C333.787 37.4999 332.566 38 331.478 38.353C330.389 38.706 329.374 38.9413 328.433 39.059C327.609 39.1473 326.889 39.2208 326.271 39.2796C325.683 39.3679 325.124 39.412 324.594 39.412C323.712 39.412 322.917 39.3238 322.211 39.1473C321.505 38.9708 320.77 38.8384 320.005 38.7501C318.917 38.6325 317.887 38.2648 316.916 37.647C314.857 36.0585 313.342 34.3082 312.372 32.3961C311.43 30.4546 310.93 28.1453 310.871 25.4684C310.812 22.4385 311.401 19.7909 312.636 17.5258L312.857 16.7757C312.975 16.7169 313.033 16.6728 313.033 16.6433C313.063 16.5845 313.092 16.5551 313.122 16.5551L313.21 16.3786L313.475 16.2021C314.504 14.2606 316.166 12.9368 318.461 12.2308C319.843 11.9366 321.829 11.7896 324.418 11.7896ZM324.418 17.1287C324.329 17.1287 324.227 17.1434 324.109 17.1728C323.991 17.1728 323.903 17.2464 323.844 17.3935C323.785 17.57 323.653 17.6876 323.447 17.7465C323.241 17.8053 323.094 18.173 323.006 18.8496C322.917 19.585 322.829 20.1587 322.741 20.5705C322.682 20.9823 322.8 21.1883 323.094 21.1883L326.006 21.1441L325.874 19.8204L325.741 18.982L325.565 18.0554C325.565 17.9377 325.536 17.8494 325.477 17.7906C325.447 17.7318 325.418 17.6435 325.388 17.5258L324.947 17.217C324.771 17.1581 324.594 17.1287 324.418 17.1287Z" fill="black"/>
</svg>
